<?xml version="1.0" standalone="no"?>
<!DOCTYPE svg PUBLIC "-//W3C//DTD SVG 20010904//EN"
 "http://www.w3.org/TR/2001/REC-SVG-20010904/DTD/svg10.dtd">
<svg version="1.0" xmlns="http://www.w3.org/2000/svg"
 width="430.000000pt" height="326.000000pt" viewBox="0 0 430.000000 326.000000"
 preserveAspectRatio="xMidYMid meet">

<g transform="translate(0.000000,326.000000) scale(0.100000,-0.100000)"
fill="#000000" stroke="none">
<path d="M1910 3006 c-139 -30 -251 -89 -346 -183 -140 -138 -207 -300 -207
-498 0 -111 21 -195 75 -305 33 -68 58 -102 127 -170 54 -53 108 -97 144 -115
l59 -30 -5 -55 c-6 -66 -24 -108 -96 -220 -30 -46 -72 -124 -92 -173 -32 -78
-48 -101 -136 -195 -95 -102 -146 -143 -159 -129 -4 3 10 25 31 49 38 45 39
53 20 143 -3 17 -8 40 -11 52 -3 16 -16 25 -47 34 -27 7 -52 23 -70 45 -19 23
-45 38 -79 49 -72 21 -106 19 -166 -11 -60 -30 -102 -89 -102 -145 0 -29 -8
-41 -51 -78 -94 -81 -104 -118 -72 -284 16 -85 16 -91 -1 -135 -10 -26 -24
-65 -33 -87 -9 -25 -13 -56 -9 -81 l5 -41 -42 -5 c-29 -4 -71 -24 -140 -67
-53 -35 -97 -66 -97 -70 0 -31 23 -31 1838 -31 1231 0 1820 3 1833 10 10 6 19
17 19 25 0 7 -44 41 -97 74 l-97 61 -741 1 c-407 0 -734 3 -727 6 7 2 50 48
95 101 114 133 342 353 400 386 26 16 99 48 161 71 144 55 172 73 294 189 141
133 219 186 271 186 27 0 47 6 60 19 18 18 41 79 41 108 0 7 25 43 57 79 55
66 63 83 79 184 8 46 -19 73 -68 68 -28 -2 -36 -10 -53 -44 -29 -61 -50 -81
-135 -125 -44 -23 -113 -74 -167 -122 -113 -101 -419 -294 -497 -313 -28 -7
-72 -17 -98 -23 -26 -6 -71 -26 -100 -44 -29 -18 -105 -55 -168 -82 -63 -27
-157 -78 -210 -112 l-95 -63 -30 36 c-16 21 -68 81 -115 135 -47 54 -93 112
-103 128 -18 30 -18 30 5 35 13 2 48 9 78 15 31 6 123 46 209 89 l154 77 85 0
c94 0 96 2 154 99 21 36 40 52 85 73 56 27 59 30 80 93 27 77 28 94 7 114 -28
29 -70 20 -104 -23 -33 -40 -73 -62 -150 -82 -24 -6 -76 -26 -115 -44 -38 -19
-115 -45 -170 -59 -137 -34 -316 -69 -322 -63 -5 5 28 72 49 98 7 9 48 24 91
33 243 54 446 250 513 496 26 95 24 252 -5 357 -60 218 -237 399 -456 469 -99
31 -241 40 -335 20z m342 -68 c193 -72 341 -225 401 -413 33 -104 32 -290 -2
-394 -49 -147 -170 -291 -307 -363 -63 -33 -174 -73 -174 -63 0 3 23 39 50 81
28 42 50 88 50 102 0 15 -13 37 -36 58 -28 27 -44 34 -75 34 -46 0 -63 -14
-108 -93 -18 -31 -34 -57 -36 -57 -3 0 -11 13 -20 30 -20 38 -59 49 -86 24
-23 -21 -22 -48 6 -127 10 -26 15 -50 12 -53 -10 -10 -120 27 -189 63 -300
157 -425 545 -274 846 85 167 238 293 416 342 89 24 286 15 372 -17z m-62
-1008 c46 -24 44 -45 -11 -127 -29 -43 -70 -98 -91 -122 -21 -25 -55 -79 -74
-120 -123 -261 -179 -357 -290 -496 -84 -106 -149 -168 -256 -247 -54 -40 -98
-78 -98 -84 0 -23 22 -26 48 -7 48 35 51 35 67 4 19 -38 19 -94 -1 -132 -14
-29 -65 -59 -98 -59 -32 0 -129 43 -162 72 -29 26 -34 36 -34 74 0 95 49 158
193 246 147 91 293 223 337 307 41 77 73 123 154 217 32 38 67 89 78 113 32
70 26 162 -17 264 -13 31 13 18 34 -18 11 -19 26 -35 33 -35 24 0 56 29 83 77
48 84 64 95 105 73z m1663 -150 c-8 -77 -23 -111 -76 -173 -42 -49 -59 -78
-63 -109 -14 -84 -77 -105 -118 -39 -14 22 -35 46 -48 55 l-22 16 29 30 c15
16 63 48 106 70 80 41 134 92 151 142 11 30 45 36 41 8z m-969 -9 c3 -5 -1
-22 -9 -37 -8 -16 -15 -36 -15 -45 0 -19 -27 -44 -58 -54 -37 -11 -79 -53
-113 -111 l-31 -55 -46 3 c-46 3 -47 3 -54 45 -4 23 -11 51 -17 61 -9 17 -4
22 42 45 29 14 75 31 102 38 72 17 120 44 151 84 27 36 39 42 48 26z m-1006
-106 c8 -8 -74 -223 -93 -245 -34 -39 -80 -110 -109 -170 -20 -40 -46 -71 -99
-114 -42 -35 -59 -46 -40 -25 17 19 48 74 69 122 20 49 58 122 85 163 73 111
100 171 106 231 l6 55 36 -7 c20 -4 37 -8 39 -10z m37 -70 c-22 -60 -30 -53
-9 9 9 26 19 45 22 42 2 -3 -3 -26 -13 -51z m584 -43 c6 -15 13 -40 14 -56 2
-25 -3 -30 -60 -51 -34 -13 -104 -46 -155 -73 -111 -60 -181 -82 -260 -82 -49
0 -58 -3 -58 -17 0 -32 56 -116 143 -216 90 -101 137 -160 137 -169 0 -3 -29
-24 -65 -47 -45 -28 -65 -46 -65 -61 0 -11 5 -20 12 -20 6 0 90 51 187 114 97
63 206 129 244 145 37 17 97 45 135 62 37 16 83 41 103 55 20 14 68 31 110 39
41 9 88 21 104 27 38 14 340 200 406 250 27 21 56 38 65 38 17 0 74 -58 74
-76 0 -6 -35 -38 -77 -71 -43 -34 -114 -95 -158 -138 -97 -93 -128 -112 -272
-165 -62 -23 -135 -56 -162 -74 -52 -33 -292 -264 -428 -413 -58 -64 -99 -99
-145 -123 -57 -31 -72 -35 -158 -37 -58 -2 -114 1 -145 10 -71 19 -80 41 -80
193 0 102 3 125 18 141 9 11 17 29 17 41 0 12 -29 77 -64 144 -35 68 -69 140
-76 161 -11 35 -10 41 17 79 15 22 60 101 98 177 l70 136 110 23 c61 13 160
36 220 51 140 36 131 36 144 3z m-1419 -296 c0 -7 -11 -21 -25 -30 -30 -20
-32 -48 -5 -86 18 -26 18 -29 3 -41 -27 -23 -42 -70 -32 -98 12 -29 37 -50 62
-51 9 0 17 -4 17 -10 0 -31 -135 5 -172 46 -45 50 -54 149 -20 210 25 47 71
74 123 74 35 0 49 -4 49 -14z m94 -40 c16 -22 38 -37 63 -43 31 -7 37 -13 35
-30 -2 -12 4 -35 12 -52 21 -40 21 -45 -14 -77 -41 -39 -55 -76 -40 -104 10
-19 8 -26 -13 -49 -26 -28 -50 -69 -68 -116 l-12 -30 -7 33 c-13 54 -5 149 14
167 32 32 16 70 -33 77 -30 4 -50 33 -36 52 51 70 50 64 26 96 -11 16 -21 32
-21 35 0 9 54 75 61 75 4 0 18 -15 33 -34z m626 -150 c0 -8 32 -76 70 -152 39
-75 68 -139 65 -142 -8 -9 -103 -8 -158 1 -42 7 -50 13 -67 47 -11 21 -30 47
-43 57 l-24 19 68 84 c38 47 69 88 69 93 0 14 20 7 20 -7z m-976 -61 c-3 -8 4
-65 16 -126 30 -148 25 -236 -19 -337 -20 -47 -30 -81 -26 -95 4 -12 9 -30 11
-39 8 -27 -14 -22 -47 11 -25 25 -29 37 -29 83 0 35 8 71 25 106 30 64 32 120
9 221 -19 84 -13 129 22 171 26 30 48 33 38 5z m135 -95 c13 -7 44 -15 70 -19
l46 -6 6 -87 c5 -68 11 -95 33 -132 52 -88 119 -127 346 -200 l75 -24 -347 -1
-348 -1 0 23 c0 13 9 42 21 66 11 23 27 71 36 107 15 59 15 72 -2 176 -10 62
-20 127 -23 143 l-4 30 33 -31 c19 -18 45 -37 58 -44z m685 -71 c34 -26 33
-48 -3 -101 -34 -51 -63 -120 -81 -195 -13 -58 -13 -58 -59 -42 l-31 11 34 38
c52 57 59 142 18 212 -17 29 -21 24 57 85 22 17 35 16 65 -8z m212 -119 l40 0
0 -102 c-1 -57 3 -121 7 -143 l8 -40 -108 8 c-59 5 -132 13 -161 19 -53 10
-53 10 -46 41 16 75 45 155 73 198 l29 47 59 -14 c32 -8 76 -14 99 -14z
m-1125 -337 c8 -9 28 -22 46 -30 35 -14 159 -18 167 -5 3 5 -12 17 -32 28
l-37 19 85 3 c47 2 281 1 520 -1 421 -4 437 -4 505 -27 53 -17 95 -23 170 -24
87 0 108 3 166 27 l66 27 745 0 745 0 48 -26 c111 -58 248 -54 -1660 -53
-1649 0 -1749 1 -1726 17 84 60 164 79 192 45z"/>
<path d="M2032 2858 c3 -8 32 -16 69 -20 234 -24 421 -212 447 -449 8 -69 32
-96 32 -35 0 221 -186 448 -411 501 -80 19 -142 20 -137 3z"/>
<path d="M2361 1496 c-41 -12 -76 -27 -79 -34 -2 -6 2 -12 8 -12 24 0 160 43
160 51 0 17 -18 16 -89 -5z"/>
<path d="M3422 1384 c-34 -25 -62 -53 -62 -61 0 -19 4 -17 78 37 34 25 62 51
62 58 0 20 -13 14 -78 -34z"/>
</g>
</svg>
