<?xml version="1.0" encoding="UTF-8"?>
<svg id="Calque_1" data-name="Calque 1" xmlns="http://www.w3.org/2000/svg" version="1.1" viewBox="0 0 205 132">
  <defs>
    <style>
      .cls-1 {
        fill: #000;
        stroke-width: 0px;
      }
    </style>
  </defs>
  <path class="cls-1" d="M109.3,71.9c.3,0,.6,0,.7.4s0,.6-.4.7l-6.2,1.8c-.3,0-.6,0-.7-.4s0-.6.4-.7l6.2-1.8ZM68.7,103.7c-.9.7-1.9,1.4-2.6,1.9-.4.3-1,.2-1.3-.2-.3-.4-.2-1,.2-1.3,1-.7,1.9-1.4,2.7-2,.6-.4,1.5-1.1,2.4-1.7,5.2-4,5.8-4.5,11.2-11.8.2-.2.4-.4.6-.7h0c0-.1.3-.5.3-.5l.2-.2c.7-.7,1.5-2,2.4-3.5,1.3-2.1,2.6-4.6,3.5-6.4,1.4-2.8,2.6-5.4,3.2-6.8l.4-.8c.5-1.1.7-1.6,1-2.1.3-.5.6-.9,1.2-1.8l.3-.5c.3-.4.7-.8,1.1-1.3.5-.5,1-1.1,1.6-1.9.6-1,1.2-1.8,1.7-2.6.6-.9,1.2-1.7,1.8-2.6.3-.5.1-1.2-.4-1.7-.2-.3-.6-.6-.9-.8-.3-.2-.7-.4-1.1-.5-.7-.2-1.4,0-1.8.6,0,.2-.4.6-.7,1.1-.4.6-.8,1.3-1.2,1.9-.1.2-.2.2-.2.3-.5.8-1.2,2-2.1,2.4-.1,0-.2,0-.4.1-.4.1-.8,0-1.2-.2-.3-.2-.6-.5-.8-1-.1-.2-.2-.5-.3-.8,0-.2-.1-.4-.2-.6-.1-.2-.3-.4-.4-.5,0,0-.1,0-.2,0,0,0-.1,0-.2.1,0,0-.2.2-.2.3,0,.2-.1.5,0,.6,1,1.4,1.3,2.8,1.5,4.3,0,.1,0,.2,0,.5.3,1.5.2,3-.1,4.4-.3,1.4-1,2.7-1.9,4-1.1,1.5-2,2.6-2.9,3.6-1.2,1.4-2.5,2.8-4.2,5.5h0c-.8,1.3-1.1,1.8-1.3,2.4-.2.4-.4.9-.8,1.8-.8,1.6-1.1,1.7-1.8,2.3-.4.3-1,.7-2.1,1.7h0l-3.9,3.6h0c-.5.5-1.7,1.3-3.1,2.2-1.5,1-3.3,2-4.8,2.9h0c0,0-.2.1-.3.2h-.1c-2,1.3-3.8,3.3-4.8,5.5-.5,1-.8,1.9-.8,2.9,0,.9.1,1.8.5,2.5.3.5.7.9,1.2,1.4.4.3.9.6,1.3.8h0c1.3.7,2.7,1.3,4.2,1.7h0c.2,0,.5,0,.9.1,1.1,0,2.1-.2,2.9-.6.3-.2.6-.4.8-.6.1-.1.2-.3.4-.4.6-.8,1-1.9,1.1-3,0-.1,0-.2,0-.4,0-.3,0-.5,0-.8-.2-1.1-.7-2.2-1.6-3.2h0,0ZM59.2,112.7h0c-.7-.3-1.2-.7-1.7-1-.6-.4-1.2-.9-1.8-1.5-2.3-2.3-3.7-5.4-3.1-9.6,0-.4,0-.9,0-1.3,0-.3-.2-.5-.4-.8-1.4,0-3.4-.4-5.1-1.2-1.4-.7-2.6-1.7-3.3-2.9,0,0-.2,0-.3,0,0,.6.2,1.4.4,2.1.1.4.2.8.3,1.2.8,4.5,1.2,7.1,1.1,9.4-.2,2.3-.8,4.2-2.2,7h0c0,0,0,.1,0,.1,0,.1-.2.3-.3.4-.4.8-.5,1.6-.3,2.3,0,0,0,0,0,.1h29.5c-.3-.1-.7-.2-1.1-.4-1.7-.5-3.8-1.2-5.3-1.7l-.7-.2c-.5-.2-.8-.3-1-.3,0,0-.2,0-.2,0-1.6-.5-3.1-1.1-4.5-1.8h0ZM55.1,106.1c0-1.2.4-2.3,1-3.4.8-1.6,2-3.2,3.4-4.5-.2-.1-.3-.3-.5-.4-.5-.7-.7-1.4-.3-2.2.2-.6.8-1.3,1.6-2,1.1-.9,1.4-1.6,1.5-2.1,0-.5-.3-1-.6-1.5-.7-1.1-.6-1.5-.4-2.2,0-.2,0-.4,0-.7,0-.2-.2-.3-.3-.3-.2,0-.3,0-.5,0-2.6-.6-3.1-1.4-3.5-2.2-.1-.2-.2-.4-.4-.6-.3-.3-.7-.5-1.1-.8-.1,0-.2-.1-.4-.2,0,1.4-.9,2-1.7,2.6-.4.3-.8.6.3,1.9,1.5,1.8.8,2.6-.4,3.5-.5.5-.8,1-.9,1.5,0,.2,0,.4,0,.5,0,.2.1.3.3.5.3.4.9.7,1.8.8.6,0,1,.1,1.4.4.2.1.3.3.4.4.2.4.3.8.2,1.2,0,.3-.2.6-.5.8-.3.4-.9.8-1.4,1.1.1.3.2.5.3.8.2.7.1,1.3,0,1.9-.3,2.1,0,3.8.7,5.3h0ZM92.9,16.1c-.3,0-.6-.3-.6-.6s.3-.6.6-.6c6.3,0,11.9,2.5,16.1,6.6,4.1,4.1,6.7,9.8,6.7,16.1s-.3.6-.6.6-.6-.3-.6-.6c0-6-2.4-11.3-6.3-15.2-3.9-3.9-9.3-6.3-15.2-6.3h0ZM41.9,93.1c0-.2-.1-.4-.3-.7-3.8,2.4-3,5.6-2.3,8.8.7,2.9,1.4,5.9-.4,8.8-.6,1.1-1.1,2.2-1.2,3.3-.2,1.1-.1,2.1.2,3,.4,1.1,1.1,2.1,2.2,2.7.5.2,1,.4,1.6.5-.5-.6-.9-1.3-1.1-2-.3-1.2-.1-2.5.4-3.6,0-.2.2-.4.3-.6,1.2-2.7,1.8-4.3,2-6.3.1-2.1-.2-4.6-1-8.9h0c0-.3-.2-.7-.2-1.1-.2-1-.5-2-.4-3,0-.3.1-.6.2-.9h0ZM40.7,90.7c0-.2.2-.4.3-.6.2-.2.3-.3.6-.4.2,0,.5-.2.8-.2,0,0,0,0,0-.2.1-.3.2-.6.2-1,0-.9,0-1.7.3-2.5.5-1.6,1.5-3,2.8-4,1.3-1,3-1.6,4.7-1.7.9,0,1.9,0,2.9.4h0c.9.2,1.7.5,2.3.8.6.3,1,.7,1.4,1h0c.4.4.6.8.8,1.1.2.4.5.9,2.3,1.3.1,0,.2,0,.4,0,1.1.2,1.8.3,1.9,2,0,.5,0,.9,0,1.2,0,.2,0,.4.2.8.4.7.9,1.5.9,2.5,0,1-.6,2.1-2.1,3.4-.6.5-.9.9-1.1,1.3,0,.2,0,.3,0,.4,0,0,.2.2.4.2h0c.2,0,.4,0,.7-.2.1,0,.3-.2.4-.2,3-2.2,4.1-3.5,6.3-6.1.2-.3.5-.6.8-.9h0c1-1.2,1.6-1.8,2-2.2.4-.4.6-.5,1.1-1.8.3-.8.4-.9.4-1.1,1.3-3.3,2-5.2,4.4-8.6l.4-.5c.9-1.3,1.7-2.4,2.5-4.2h0c.6-1.1.9-2.3,1.2-3.5.2-1.2.3-2.4.2-3.6-3.8-1.7-7.3-4.3-10-7.4-4.4-5.1-7.1-11.7-7.1-19s3.2-15.2,8.5-20.4c5.2-5.2,12.4-8.5,20.4-8.5s15.2,3.2,20.4,8.5c5.2,5.2,8.5,12.4,8.5,20.4s-2.8,14.2-7.4,19.3c-4.6,5.1-11,8.6-18.3,9.4,0,0-.1.2-.2.2l-.4.5c-.6.8-.9,1.2-1.1,1.6-.3.4-.5.9-.9,1.9l-.4.8h0c1.7-.2,3.4-.6,5.1-.9,4.3-.9,8.2-1.7,12.8-3l.8-.2c1.2-.4,1.9-.8,2.7-1.2.4-.2.8-.5,1.2-.7h0c1.5-.7,2.9-1,4.1-1.3,2.1-.5,3.9-.9,5.6-3.3.6-1.2,1.6-1.7,2.5-1.8.4,0,.9,0,1.2.3.4.2.7.5.9.9.5.8.6,1.9-.1,3-.2.3-.3.4-.3.6,0,.3-.2.7-.3,1.6h0c-.5,2.1-1.8,2.6-3.3,3.2-.5.2-1.1.4-1.6.8-.7.6-1.1.9-1.5,1.4-.4.6-.9,1.4-1.6,2.9h0c0,0,0,0,0,0-1.7,2.7-3.2,2.3-5,2-.6-.1-1.1-.2-1.7-.2h-.5c-2.7.6-6.2,2.5-9.3,4.1-1.8,1-3.6,1.9-4.9,2.4-1.3.5-2.6.8-4,1.1-1,.2-2,.2-3.1.3,1,2.1,3.5,4.9,5.7,7.3,1.1,1.2,2,2.3,2.8,3.2h0l2.7,3.5c1.1-.7,2.2-1.4,3.4-2.2,2.1-1.4,4.2-2.9,6.8-4,1.4-.6,2.5-1.1,3.6-1.5,2.6-1.1,4.6-1.9,6.3-3.1h0c2.3-1.8,4.1-2,5.9-2.3,1.8-.2,3.7-.5,6.6-2.4h0c1-.6,2.1-1.3,3.4-2.1,4.7-2.9,10.6-6.5,12.7-8.7l.2-.2h0c3.6-3.7,5.9-4.8,7.8-5.8,1.2-.6,2.2-1.1,3.3-2.1.6-.6,1-1.2,1.3-1.7s.4-1,.5-1.4c.3-1.1,1.3-1.7,2.3-1.8.4,0,.7,0,1.1.1.4,0,.7.3,1,.5.8.6,1.2,1.6.8,2.9,0,.2-.1.4-.2.6-.2.5-.4,1-.4,1.8-.2,2.1-1.1,3.1-2.2,4.2-.2.2-.5.5-.7.8h0c-1.7,1.9-2.1,2.4-2.5,4.3h0c-.8,4.3-2.4,4.2-4.3,4.1-.5,0-1,0-1.5,0l-.3.2c-6.1,4.1-8.9,7-10.5,8.7-.2.2-.4.4-.6.7-3.8,3.8-6.9,4.9-10.3,6.1-1.7.6-3.4,1.2-5.3,2.1-4.2,2.1-5.9,4-8.3,6.6-1,1.1-2,2.2-3.5,3.6-.4.4-.9.8-1.4,1.2-.8.6-1.6,1.3-2.3,2.1-.7.9-.8,1-.9,1.1-2.2,2.7-4.2,5.1-6.5,7.1h59c2.3,0,3.2,0,4.8,1l4.2,2.7h0c1.9,1.1,2.6,1.8,2.1,2.6-.4.6-1.3.6-3,.6,0,0,.1,0-.9,0H26.1c-.9,0-1.3,0-1.6-.7-.3-.8.1-1,1-1.5.2,0,.3-.2.5-.3l5.4-3.4c1.6-1,2.5-1,4.8-1,0,0,0-.2,0-.2-.4-1.1-.5-2.5-.2-3.9.2-1.3.7-2.7,1.5-4,1.4-2.3.8-4.9.2-7.5-.9-4-1.8-7.8,3.2-10.8h0ZM44,90.5c.1.2.2.3.3.5.2.4.4.9.5,1.5.1.2.2.3.3.5.5,1.1,1.5,2,2.7,2.6,1.4.7,3,1.1,4.1,1.1h.4s0,0,0,0h0c.5,0,1-.3,1.4-.6-.8,0-1.6-.2-2.2-.5-.5-.3-1-.7-1.3-1.1-.3-.5-.5-1-.6-1.6,0-.6,0-1.2.4-1.7h0c.4-.7.9-1.1,1.3-1.5.4-.3.7-.6.3-1-2.4-2.8-1.3-3.6,0-4.6.5-.3,1-.7.8-1.6-.7-.2-1.3-.2-2-.2-1.4,0-2.7.5-3.7,1.3-1,.8-1.8,1.8-2.1,3.1-.2.6-.3,1.2-.2,1.9,0,.7-.2,1.3-.4,1.9,0,0,0,.1-.1.2h0ZM43.8,119c0,0,.2.2.3.2.2.2.5.3.7.4l2.7,1.4-3,.4c-2.2.3-3.9,0-5.2-.8-.8-.4-1.5-1-2-1.6h-1c-1.9,0-2.7,0-3.9.7l-4,2.6h147.6l-4-2.6c-1.1-.7-1.9-.7-3.8-.7h-61.5c-4.1,2.5-9.4,3.3-17.6.8h-.3c0,0,0-.1,0-.1-.1,0-.3,0-.6-.2-.9-.2-1.9-.4-2.9-.5,0,0-41.5,0-41.5,0ZM153.5,75.6c.2-.2.6-.1.8.1.2.2.1.6-.1.8l-5.1,3.9c-.2.2-.6.1-.8-.1-.2-.2-.1-.6.1-.8l5.1-3.9ZM74,115.9c2.8.8,5.5.9,8.1,1.1,1.1,0,2.2.1,3.3.2h0c.8,0,1.5.2,2.3.3-.5-1.3-.9-3.2-1.1-5.4-.1-2,0-4.3.6-6.8-1.5.1-2.9,0-4.2-.1-1.7-.2-3.2-.6-4.3-1.1-1.1,1.3-2.1,3-2.8,4.8-.9,2.3-1.6,4.7-1.8,6.9h0ZM79.4,102.5c1,.4,2.3.7,3.8.9,1.5.2,3.2.2,5,0,.3-.1.4-.2.4-.3,0-.3-.2-.6-.3-.9-.5-.9-1-1.9-1.6-3-1.8-3.3-3.3-6.2-4.2-9.1-3.2,4.3-4.7,6.2-6.5,7.9.4.1.8.3,1.2.6,1,.7,1.8,2,2.2,3.8h0c0,0,0,0,0,0ZM89.2,105c-.6,2.4-.8,4.6-.7,6.5,0,2.7.7,4.9,1.3,6.2,0,.2.2.3.2.4,13.5,4,18.4-1.9,24.3-9.2.5-.6.8-.9.9-1.1.8-.9,1.7-1.7,2.6-2.4.5-.4.9-.7,1.2-1.1,1.3-1.3,2.4-2.5,3.4-3.5,2.4-2.7,4.3-4.7,8.8-7,2-1,3.8-1.6,5.6-2.2,3.2-1.1,6.2-2.1,9.6-5.6.2-.2.4-.4.6-.6,1.6-1.7,4.4-4.6,10.4-8.7,0-.3-.2-.6-.3-1-.3-.5-.7-1.1-1.2-1.6-.2-.3-.5-.5-.8-.7-.4-.3-.9-.6-1.3-.6-2.4,2.3-8.2,5.8-12.8,8.7-1.2.8-2.4,1.5-3.4,2.1h0c-3.3,2.1-5.4,2.4-7.4,2.7-1.7.2-3.1.4-5.1,1.9h0c-1.9,1.4-4,2.2-6.7,3.3-1.1.4-2.3.9-3.5,1.5-2.4,1-4.4,2.4-6.4,3.8-1.4.9-2.7,1.8-4.2,2.7-2,1.3-4.1,2.8-6.1,4.1h0c-.2.2-.5.2-.7.2-.3,0-.6-.2-.7-.4h0c-.2-.3-.2-.6,0-.9,0-.2.2-.4.5-.6h0c0,0,5.2-3.4,5.2-3.4l-2.6-3.3h0c-.7-.9-1.7-2-2.7-3.1-2.8-3.1-6-6.7-6.6-9.2l-.2-1.1h1.1c1.5,0,2.8-.2,4.1-.3,1.2-.2,2.4-.5,3.6-1,1.2-.5,2.9-1.4,4.7-2.3,3-1.6,6.4-3.4,9.2-4.1v-.4c0-.4,0-1-.2-1.5,0-.5-.3-1-.5-1.4-.2-.6-.5-1-.8-1.3-4.6,1.4-8.6,2.2-12.9,3.1-1.7.3-3.4.7-5.6,1.2,0,0-.1,0-.3,0h0c-.4,0-.4,0-.7.7-.3.7-.7,1.6-1.1,2.3-.2.4-.4.8-.5,1h0c-.2.3-.3.6-.5.9-.7,1.4-1.3,2.7-2,4-.7,1.3-1.4,2.5-2.1,3.5-.8,1.2-1.5,2.1-1.9,2.5.8,3.1,2.5,6.2,4.4,9.9.5.9,1,1.8,1.6,3,.2.5.5,1.1.5,1.8,0,.7-.3,1.4-1.2,1.9h0ZM155.1,71.3c.3.2.6.4.9.6.4.3.8.7,1.2,1.1.6.6,1,1.3,1.4,2,.1.3.3.6.4.8.6,0,1.1,0,1.6,0,1,0,1.9,0,2.4-2.6h0c.4-2.5.9-3,2.9-5.2h0c.3-.3.6-.6.8-.9.9-.9,1.6-1.6,1.7-3.1,0-1,.3-1.6.5-2.2l.2-.5c.1-.5,0-.8-.2-1,0,0-.2-.1-.3-.2-.1,0-.3,0-.4,0-.3,0-.6.2-.6.5-.2.5-.3,1.1-.7,1.7-.3.6-.8,1.3-1.6,2.1-1.3,1.3-2.4,1.9-3.8,2.5-1.6.8-3.6,1.7-6.4,4.4h0ZM72.2,107.8c0,1.1-.2,2.1-.6,3.1-.3.8-.9,1.5-1.5,2.1-.5.5-1,.9-1.6,1.2,1.3.4,2.7.8,3.7,1.1.3-2.2,1-4.7,1.9-7,.9-2.1,2-4.1,3.4-5.6-.3-1.3-.8-2.1-1.5-2.6-.6-.4-1.3-.6-2.1-.4-.9.7-1.9,1.5-3.2,2.5l-.5.4c.4.5.8,1,1.1,1.5.6,1.1.8,2.4.8,3.6h0ZM88.3,66.2s0,0-.2,0c-.3.6-.5,1.2-.8,1.8-.3.8-.6,1.5-.9,2.4,0,.3-.2.6-.3.9,0,0,.2-.2.2-.3.8-1.1,1.3-2.2,1.6-3.3.1-.4.2-.9.2-1.3h0ZM86.3,65.8c-1.1-.3-2.2-.6-3.3-1,0,1,0,2.1-.3,3.1-.3,1.4-.7,2.7-1.4,3.9-.9,1.9-1.7,3.1-2.7,4.4,0,0,0,.1-.4.5-2.2,3.2-2.9,5-4.2,8.2l-.4,1.1c-.6,1.7-.9,1.8-1.6,2.5-.4.3-.9.8-1.9,2h0c-.3.3-.5.6-.8.9h0c0,0,0,0,.1,0h0s3.9-3.6,3.9-3.6h0c1.2-1.1,1.8-1.6,2.3-1.9.5-.3.6-.4,1.3-1.6.4-.7.6-1.2.7-1.6.3-.7.5-1.3,1.5-2.7h0c1.5-2.4,2.7-3.8,3.8-5,.3-.8.6-1.7.9-2.6.4-1.2.7-2.1.9-2.6.3-.9.6-1.7.9-2.5.2-.5.4-1,.6-1.5h0ZM98,64.2c5.9-1.1,11.1-4.2,15-8.5,4.3-4.8,6.9-11.1,6.9-18.1s-3-14.2-7.9-19.1c-4.9-4.9-11.7-7.9-19.1-7.9s-14.2,3-19.1,7.9c-4.9,4.9-7.9,11.6-7.9,19.1s2.5,13,6.6,17.8c4,4.6,9.5,7.8,15.7,8.9,0-.1,0-.3,0-.4v-.5c-.3-1.3-.5-2.5-1.3-3.5-.6-.8-.6-1.7-.2-2.5.1-.3.3-.6.6-.9.3-.3.6-.5.9-.6.7-.2,1.4-.1,2,.4.2.2.5.5.7.9.2.3.3.6.4,1,0,.2.1.3.2.5,0,0,0,0,0,0,.4-.2.9-1.1,1.3-1.7,0-.2.2-.3.2-.4.4-.6.8-1.3,1.1-1.9.2-.3.4-.6.7-1.2.9-1.5,2.3-1.8,3.8-1.4.6.1,1.1.4,1.6.7.5.3.9.7,1.3,1.2,1,1.2,1.3,2.7.5,3.9-.6.9-1.2,1.7-1.7,2.6-.6.9-1.2,1.8-1.7,2.6h0c-.2.3-.4.6-.6.8h0ZM177.7,122.6c.2-.3,0-.2-.4,0,.2.1.3.2.4,0ZM26.3,122.9c0,.2,0,.2,0,0,0-.2-.1-.3,0,0ZM113.4,68.6c.5.8.9,1.6,1.1,2.4.3.9.4,1.8.4,2.7.6,0,1.1.1,1.6.2,1.1.2,2.1.4,3.1-1.1.8-1.6,1.2-2.4,1.8-3.1.5-.7,1-1.1,1.9-1.8h0c.7-.5,1.3-.8,2-1,.9-.4,1.8-.7,2.1-1.8.2-.9.3-1.4.4-1.8.1-.5.3-.7.5-1.1.3-.4.3-.8.1-1,0,0-.2-.2-.3-.2s-.2,0-.3,0c-.3,0-.6.2-.9.8h0c0,0,0,.2,0,.2-2.1,3-4.2,3.5-6.7,4.1-1.2.3-2.4.6-3.8,1.2-.4.2-.7.4-1.1.6-.6.3-1.1.7-1.8,1h0Z"/>
</svg>