<?xml version="1.0" standalone="no"?>
<!DOCTYPE svg PUBLIC "-//W3C//DTD SVG 20010904//EN"
 "http://www.w3.org/TR/2001/REC-SVG-20010904/DTD/svg10.dtd">
<svg version="1.0" xmlns="http://www.w3.org/2000/svg"
 width="430.000000pt" height="234.000000pt" viewBox="0 0 430.000000 234.000000"
 preserveAspectRatio="xMidYMid meet">

<g transform="translate(0.000000,234.000000) scale(0.100000,-0.100000)"
fill="#000000" stroke="none">
<path d="M3205 1926 c-30 -18 -56 -51 -105 -130 -35 -58 -71 -108 -80 -112 -8
-3 -46 -10 -85 -14 -52 -5 -100 -20 -186 -59 -164 -72 -249 -99 -353 -112
-120 -15 -170 -7 -255 37 -93 48 -145 49 -256 3 -78 -32 -84 -33 -260 -37 -99
-3 -198 -5 -220 -5 -25 -1 -70 12 -120 35 -128 56 -164 62 -369 54 -100 -4
-191 -10 -202 -12 -15 -4 -33 4 -56 25 -67 59 -107 58 -181 -1 -23 -19 -42
-23 -125 -26 -53 -2 -103 -9 -109 -14 -21 -17 -15 -63 10 -85 40 -38 159 -58
424 -73 291 -17 450 -44 523 -91 91 -57 219 -108 386 -155 l171 -47 6 -126 c3
-69 16 -175 29 -236 l23 -110 -160 -1 c-115 0 -197 -7 -294 -23 l-135 -22 -34
36 c-56 58 -105 48 -211 -44 -38 -33 -77 -55 -122 -70 -37 -12 -75 -31 -84
-41 -16 -18 -32 -20 -168 -20 l-150 0 -99 -62 c-66 -41 -98 -67 -96 -77 3 -14
178 -16 1822 -19 1336 -1 1822 1 1832 9 8 6 14 15 14 20 0 5 -42 36 -92 69
l-93 60 -94 0 c-74 0 -98 4 -113 17 -13 12 -47 19 -124 24 -59 4 -110 11 -114
16 -12 13 -30 123 -39 244 -6 67 -18 137 -29 169 -29 80 -46 301 -32 415 6 49
13 92 16 94 3 3 15 -7 27 -21 31 -37 57 -42 108 -18 24 11 58 20 75 20 34 0
47 11 59 50 4 14 29 45 55 70 56 53 76 105 66 174 -14 89 -105 170 -207 183
-28 4 -56 16 -77 34 -40 35 -65 36 -117 5z m100 -53 c7 -17 18 -23 41 -23 55
0 137 -31 170 -64 18 -18 37 -51 43 -74 14 -50 5 -96 -16 -88 -8 3 -29 6 -47
6 -24 0 -43 10 -70 36 -42 41 -68 41 -119 -2 -27 -23 -60 -30 -89 -19 -12 5
-12 15 4 63 11 31 29 65 41 74 18 14 20 19 9 30 -24 24 -65 -11 -84 -71 -21
-66 -31 -78 -70 -86 -45 -10 -55 7 -26 47 14 18 37 56 53 83 43 78 84 116 120
113 20 -2 33 -11 40 -25z m105 -253 c19 -27 27 -30 72 -30 58 0 60 -12 8 -48
-19 -13 -39 -37 -45 -55 -7 -22 -16 -32 -30 -32 -12 -1 -42 -9 -68 -19 -26
-10 -54 -15 -62 -12 -8 3 -20 26 -28 52 -14 50 -33 67 -43 40 -4 -10 -15 3
-34 42 -16 31 -28 58 -26 59 2 2 15 -1 30 -7 47 -17 100 -12 137 14 46 32 64
32 89 -4z m-322 -23 c72 -47 83 -96 68 -297 -10 -127 7 -316 35 -398 13 -35
24 -105 29 -180 5 -67 13 -139 19 -160 5 -20 12 -49 15 -64 7 -33 23 -38 156
-52 82 -9 105 -14 105 -26 0 -13 -22 -15 -132 -15 -171 0 -175 2 -220 146 -82
257 -121 432 -170 769 -6 41 -13 56 -27 58 -16 3 -18 -2 -14 -52 3 -62 -3 -67
-51 -41 -73 37 -131 146 -117 219 8 43 49 94 91 113 49 22 166 12 213 -20z
m-2474 -24 c22 -24 23 -28 10 -47 -8 -11 -14 -34 -14 -50 l0 -29 -87 7 c-105
8 -220 31 -239 47 -25 20 -4 29 72 29 77 0 125 14 171 50 35 27 57 25 87 -7z
m2129 -76 c-4 -51 -1 -73 17 -115 27 -63 104 -137 162 -154 43 -13 43 -13 53
-70 5 -34 3 -38 -24 -53 -43 -22 -74 -19 -153 16 -67 29 -76 31 -177 27 l-106
-3 -17 120 c-9 66 -18 137 -20 158 l-2 39 84 28 c47 15 105 37 130 48 25 11
48 21 51 21 4 1 4 -27 2 -62z m-1611 42 c29 -6 94 -29 144 -50 l92 -38 183 5
c101 2 205 6 230 9 l47 4 -20 -40 c-22 -46 -48 -171 -48 -230 0 -31 -4 -39
-18 -39 -45 0 -344 94 -417 132 -44 22 -105 54 -135 69 -57 30 -205 60 -362
74 -67 6 -77 9 -82 29 -3 12 -3 31 0 43 6 22 11 24 144 36 82 8 193 6 242 -4z
m-430 -54 c-4 -40 -7 -45 -28 -45 -29 0 -33 33 -8 68 25 36 40 27 36 -23z
m1427 8 c42 -20 95 -38 122 -41 33 -3 50 -10 53 -21 9 -31 25 -137 32 -213 l6
-78 -60 0 -61 0 -3 43 c-2 34 -7 42 -23 42 -19 0 -20 -9 -26 -165 -9 -227 -47
-451 -95 -562 -26 -58 -68 -70 -254 -76 -142 -4 -465 18 -490 33 -9 6 -25 93
-18 100 16 17 233 38 381 37 149 0 167 2 167 16 0 10 -11 73 -25 142 -47 228
-44 511 5 644 21 55 68 108 110 125 50 20 102 12 179 -26z m315 -155 c9 -68
20 -140 23 -160 l6 -38 -45 0 -45 0 -7 93 c-3 50 -12 120 -19 154 l-13 62 30
4 c17 2 36 5 42 5 6 1 18 -46 28 -120z m341 -258 c38 -17 77 -30 87 -30 10 0
18 -2 18 -5 0 -30 58 -264 85 -345 20 -58 42 -131 50 -162 9 -32 18 -64 21
-73 5 -13 -46 -15 -465 -15 -259 0 -471 3 -471 8 0 4 12 43 26 86 31 99 61
268 73 421 5 64 11 118 13 121 4 3 303 18 448 22 30 1 68 -9 115 -28z m210
-52 c17 -107 60 -282 106 -425 27 -86 48 -160 46 -166 -1 -5 -15 1 -30 14 -22
19 -39 61 -83 204 -31 99 -66 228 -79 287 l-22 106 21 10 c32 16 34 15 41 -30z
m-1832 -439 c21 -27 23 -37 15 -66 -5 -18 -6 -43 -3 -53 4 -11 3 -20 0 -20 -4
0 -81 -9 -172 -20 -91 -11 -174 -18 -184 -15 -41 13 -18 31 93 70 26 9 70 36
97 61 50 45 96 74 118 74 6 0 23 -14 36 -31z m107 -66 c0 -16 3 -38 6 -50 6
-20 3 -23 -25 -23 -30 0 -31 1 -31 43 0 48 5 57 32 57 13 0 18 -8 18 -27z
m-490 -133 c25 -25 50 -25 269 1 187 23 169 23 581 -12 141 -12 296 -5 367 16
39 12 144 15 574 15 307 0 529 -4 535 -9 9 -9 60 -21 184 -42 35 -6 102 -9
149 -7 76 4 86 7 107 31 21 25 29 27 100 27 70 0 80 -3 137 -38 l60 -37 -871
-3 c-480 -1 -1265 -1 -1744 0 l-873 3 60 38 59 37 143 0 c130 0 145 -2 163
-20z"/>
<path d="M1427 523 c-31 -3 -47 -8 -44 -16 2 -8 30 -10 88 -8 46 1 86 5 88 7
16 15 -53 24 -132 17z"/>
</g>
</svg>
