<?xml version="1.0" standalone="no"?>
<!DOCTYPE svg PUBLIC "-//W3C//DTD SVG 20010904//EN"
 "http://www.w3.org/TR/2001/REC-SVG-20010904/DTD/svg10.dtd">
<svg version="1.0" xmlns="http://www.w3.org/2000/svg"
 width="430.000000pt" height="234.000000pt" viewBox="0 0 430.000000 234.000000"
 preserveAspectRatio="xMidYMid meet">

<g transform="translate(0.000000,234.000000) scale(0.100000,-0.100000)"
fill="#000000" stroke="none">
<path d="M938 1971 c-76 -16 -110 -54 -127 -141 -36 -180 -36 -218 -6 -590 26
-321 26 -325 4 -349 -32 -34 -74 -51 -151 -61 -106 -13 -156 -62 -112 -111 15
-17 15 -19 1 -19 -9 0 -28 -10 -43 -23 -22 -19 -26 -29 -20 -51 12 -48 45 -54
300 -50 222 4 230 5 254 26 22 21 24 28 18 86 -3 34 -9 90 -12 125 -4 42 1
103 16 192 17 100 22 167 21 291 -1 195 0 197 86 166 73 -27 160 -42 235 -42
85 0 131 -22 169 -81 17 -27 51 -67 76 -89 84 -74 164 -99 314 -99 97 1 138
-12 199 -63 44 -36 130 -140 130 -157 0 -13 -84 -37 -180 -50 -118 -17 -398
-41 -477 -41 -67 0 -74 2 -113 35 -36 30 -49 35 -95 35 -47 0 -56 -4 -79 -31
-57 -67 -21 -196 66 -237 38 -19 62 -21 218 -20 128 0 215 -5 324 -21 82 -11
179 -21 215 -21 36 0 149 -7 251 -16 264 -22 405 -1 510 75 47 34 108 42 130
16 26 -31 122 -59 210 -59 75 -1 91 2 134 27 45 25 50 26 67 11 29 -26 90 -43
159 -44 79 0 131 13 155 40 17 19 17 21 0 40 -10 11 -24 20 -32 20 -7 0 -13 4
-13 8 0 5 34 8 74 8 93 -1 114 13 65 44 -57 34 -168 64 -245 64 l-72 1 5 75
c5 64 2 84 -17 128 -43 99 -120 138 -252 127 -46 -4 -118 -6 -160 -6 -50 1
-78 -2 -78 -9 0 -18 -63 -70 -85 -70 -35 0 -56 -23 -62 -68 -6 -46 -13 -51
-35 -24 -26 31 -38 72 -38 128 0 105 -40 155 -166 207 -43 19 -110 57 -149 86
-197 148 -494 303 -800 418 -318 118 -661 190 -787 164z m243 -47 c157 -29
508 -128 497 -140 -3 -2 -52 7 -109 20 -328 78 -583 96 -702 51 -37 -15 10 60
48 76 34 13 178 10 266 -7z m144 -106 c224 -38 532 -121 738 -200 l79 -30 -34
-28 c-67 -55 -118 -188 -118 -307 l0 -63 -73 0 c-138 0 -230 48 -313 164 -58
80 -84 92 -235 105 -64 5 -144 19 -178 31 -138 46 -151 28 -144 -195 3 -94 0
-156 -6 -165 -8 -11 -31 -15 -95 -15 -46 0 -87 2 -90 5 -10 11 -36 356 -35
480 0 70 5 140 12 159 25 71 92 93 262 85 61 -3 164 -14 230 -26z m913 -285
c77 -43 292 -186 292 -194 0 -3 -12 -9 -27 -12 -75 -15 -165 -121 -204 -241
l-22 -66 -41 42 c-60 63 -110 98 -158 112 -35 11 -44 18 -51 46 -22 84 45 273
112 318 42 28 43 28 99 -5z m422 -262 c69 -29 113 -59 130 -91 4 -8 11 -39 15
-67 6 -50 6 -53 -15 -53 -11 0 -32 -12 -47 -26 -32 -32 -29 -48 32 -184 25
-56 48 -120 51 -143 5 -45 -12 -90 -36 -95 -12 -2 -15 12 -15 75 0 63 -5 89
-26 134 -53 112 -151 188 -225 175 -64 -13 -124 -85 -124 -151 0 -18 -5 -25
-20 -25 -14 0 -20 7 -20 21 0 11 -11 49 -25 84 -23 56 -24 68 -15 110 24 109
91 208 162 244 57 28 92 27 178 -8z m701 -164 c26 -20 39 -53 39 -97 0 -33 -7
-48 -40 -84 -22 -24 -43 -57 -46 -75 -9 -46 -47 -71 -104 -71 -42 0 -52 -5
-83 -37 -33 -33 -41 -37 -109 -42 -59 -5 -80 -12 -109 -34 -20 -15 -39 -27
-42 -27 -4 0 -7 20 -7 44 0 49 -14 93 -66 207 -19 44 -34 89 -32 102 5 37 38
27 73 -23 20 -29 40 -46 56 -48 17 -2 29 -12 36 -33 20 -52 33 -24 26 55 l-6
73 36 7 c21 4 51 22 76 46 40 39 42 40 83 29 35 -10 51 -9 88 4 54 19 109 21
131 4z m117 -45 c67 -67 79 -170 32 -263 l-21 -41 33 9 c54 13 208 7 253 -10
l40 -16 -57 0 c-112 -2 -145 -42 -58 -71 25 -8 47 -16 50 -18 11 -8 -28 -21
-79 -27 -102 -12 -201 27 -201 78 0 16 -6 14 -39 -16 -21 -19 -55 -40 -76 -47
-50 -16 -180 -9 -222 13 l-32 17 41 40 c37 36 47 40 91 40 42 0 54 5 83 34 20
20 34 44 34 58 0 14 14 38 35 58 53 51 67 115 40 183 -12 29 13 19 53 -21z
m-2455 -64 c-14 -79 -13 -235 2 -313 4 -19 1 -37 -9 -50 -14 -19 -27 -20 -238
-22 -235 -2 -258 0 -258 22 0 21 31 34 121 50 103 18 163 53 196 115 23 41 24
54 21 163 l-3 117 91 0 91 0 -14 -82z m1575 -52 c65 -34 134 -142 148 -232 8
-55 -16 -111 -51 -120 -52 -13 -560 17 -780 46 -117 15 -201 20 -310 18 -141
-3 -152 -2 -186 20 -37 22 -69 80 -69 122 0 84 85 106 155 40 67 -63 222 -85
520 -76 183 6 565 34 574 42 2 2 1 9 -2 16 -3 10 -24 12 -83 7 -44 -3 -80 -4
-82 -3 -2 1 2 20 8 42 20 76 93 112 158 78z m-274 -102 l7 -31 -98 -6 c-54 -4
-190 -6 -303 -6 -218 1 -211 7 35 29 150 13 278 36 315 55 28 15 33 10 44 -41z
m-1520 -36 c-28 -48 -115 -91 -173 -85 -23 3 -49 11 -57 19 -25 25 12 46 99
56 43 6 91 19 109 30 18 10 35 18 37 16 2 -2 -5 -18 -15 -36z"/>
</g>
</svg>
